# xmcd CD database file
#
# Track frame offsets:
#	150
#	17050
#	33080
#
# Disc length: 664 seconds
#
# Revision: 1
# Processed by: cddbd v1.5PL3 Copyright (c) Steve Scherf et al.
# Submitted via: CDex 1.51
#
DISCID=16029603
DTITLE=SIAM SHADE - １／３の純情な感情
DYEAR=1997
DGENRE=JPop
TTITLE0=１／３の純情な感情
TTITLE1=D.D.D.
TTITLE2=１／３の純情な感情 (Original Karaoke)
EXTD=YEAR: 1997
EXTT0=
EXTT1=
EXTT2=
PLAYORDER=
